<svg width="15" height="15" viewBox="0 0 15 15" fill="none" xmlns="http://www.w3.org/2000/svg">
<path d="M7.97776 1.24302L8.93749 4.35224C9.13157 4.98098 9.71276 5.40983 10.3708 5.40983H13.5814C14.0595 5.40983 14.2649 6.01653 13.8851 6.30699L11.2009 8.35981C10.7019 8.74141 10.4936 9.3935 10.6789 9.99372L11.6831 13.247C11.8267 13.7122 11.2883 14.0874 10.9016 13.7917L8.41123 11.8871C7.87338 11.4757 7.12662 11.4757 6.58877 11.8871L4.09842 13.7917C3.71169 14.0874 3.17332 13.7122 3.31692 13.247L4.32113 9.99372C4.5064 9.3935 4.29806 8.74141 3.79909 8.35981L1.1149 6.30699C0.735111 6.01654 0.940516 5.40983 1.41865 5.40983H4.62924C5.28725 5.40983 5.86843 4.98098 6.06251 4.35224L7.02224 1.24302C7.16733 0.772983 7.83267 0.772984 7.97776 1.24302Z" fill="#1A1A1A" stroke="black"/>
</svg>
